<svg width="60" height="60" viewBox="0 0 60 60" fill="none" xmlns="http://www.w3.org/2000/svg">
<path d="M52.247 9.167C53.038 9.691 53.983 10 55 10C57.757 10 60 7.757 60 5C60 2.243 57.757 0 55 0C52.243 0 50 2.243 50 5C50 6.017 50.309 6.962 50.833 7.753L42.5 16.086L34.167 7.753C34.691 6.962 35 6.017 35 5C35 2.243 32.757 0 30 0C27.243 0 25 2.243 25 5C25 6.017 25.309 6.962 25.833 7.753L17.5 16.086L9.167 7.753C9.691 6.962 10 6.017 10 5C10 2.243 7.757 0 5 0C2.243 0 0 2.243 0 5C0 7.757 2.243 10 5 10C5.123 10 5.238 9.973 5.358 9.964L11.351 22.235L7.753 25.833C6.962 25.309 6.017 25 5 25C2.243 25 0 27.243 0 30C0 32.757 2.243 35 5 35C7.414 35 9.434 33.279 9.899 31H15.632L19.555 39.032L7.753 50.833C6.962 50.309 6.017 50 5 50C2.243 50 0 52.243 0 55C0 57.757 2.243 60 5 60C7.757 60 10 57.757 10 55C10 54.877 9.973 54.762 9.964 54.642L23.863 47.854L25.939 52.105C25.353 52.924 25 53.919 25 55C25 57.757 27.243 60 30 60C32.757 60 35 57.757 35 55C35 52.586 33.279 50.566 31 50.101V44.368L39.032 40.445L50.833 52.246C50.309 53.038 50 53.983 50 55C50 57.757 52.243 60 55 60C57.757 60 60 57.757 60 55C60 52.243 57.757 50 55 50C54.549 50 54.121 50.079 53.705 50.191L46.651 36.724L52.105 34.06C52.924 34.647 53.919 35 55 35C57.757 35 60 32.757 60 30C60 27.243 57.757 25 55 25C53.983 25 53.038 25.309 52.247 25.833L43.914 17.5L52.247 9.167ZM55 2C56.654 2 58 3.346 58 5C58 6.654 56.654 8 55 8C53.346 8 52 6.654 52 5C52 3.346 53.346 2 55 2ZM32.414 29L37.62 23.794L40.347 29H32.414ZM41.395 31L43.925 35.831L39.436 38.023L32.414 31H41.395ZM31 27.586V11.155L36.648 21.938L31 27.586ZM32.335 9.394C32.475 9.319 32.621 9.254 32.753 9.167L41.086 17.5L38.13 20.456L32.335 9.394ZM30 2C31.654 2 33 3.346 33 5C33 6.654 31.654 8 30 8C28.346 8 27 6.654 27 5C27 3.346 28.346 2 30 2ZM27.247 9.167C27.771 9.515 28.363 9.769 29 9.899V27.586L18.914 17.5L27.247 9.167ZM27.586 29H16.88L13.774 22.64L17.5 18.914L27.586 29ZM2 5C2 3.346 3.346 2 5 2C6.654 2 8 3.346 8 5C8 6.654 6.654 8 5 8C3.346 8 2 6.654 2 5ZM7.311 9.407C7.459 9.329 7.613 9.259 7.753 9.167L16.086 17.5L12.846 20.74L7.311 9.407ZM5 33C3.346 33 2 31.654 2 30C2 28.346 3.346 27 5 27C6.654 27 8 28.346 8 30C8 31.654 6.654 33 5 33ZM9.899 29C9.769 28.363 9.515 27.771 9.167 27.247L12.279 24.135L14.655 29H9.899ZM17.857 31H27.586L21.049 37.537L17.857 31ZM29 32.414V43.12L24.782 45.18L21.977 39.437L29 32.414ZM5 58C3.346 58 2 56.654 2 55C2 53.346 3.346 52 5 52C6.654 52 8 53.346 8 55C8 56.654 6.654 58 5 58ZM9.407 52.689C9.329 52.541 9.259 52.387 9.167 52.247L20.482 40.932L22.985 46.057L9.407 52.689ZM33 55C33 56.654 31.654 58 30 58C28.346 58 27 56.654 27 55C27 53.346 28.346 52 30 52C31.654 52 33 53.346 33 55ZM29 50.101C28.452 50.213 27.948 50.431 27.481 50.706L25.66 46.977L29 45.345V50.101ZM31 42.143V32.414L37.537 38.951L31 42.143ZM58 55C58 56.654 56.654 58 55 58C53.346 58 52 56.654 52 55C52 53.346 53.346 52 55 52C56.654 52 58 53.346 58 55ZM51.274 49.86L40.932 39.518L44.854 37.603L51.274 49.86ZM43.653 31H50.102C50.214 31.548 50.432 32.052 50.707 32.519L45.724 34.953L43.653 31ZM55 27C56.654 27 58 28.346 58 30C58 31.654 56.654 33 55 33C53.346 33 52 31.654 52 30C52 28.346 53.346 27 55 27ZM50.833 27.247C50.485 27.771 50.231 28.363 50.101 29H42.605L39.102 22.312L42.5 18.914L50.833 27.247Z" fill="#3B507D"/>
</svg>
