<svg width="60" height="60" viewBox="0 0 60 60" fill="none" xmlns="http://www.w3.org/2000/svg">
<path d="M33.9952 60H25.9973C24.7598 60 23.7523 58.993 23.7523 57.7549V52.4627C21.9281 51.9566 20.1794 51.2283 18.5363 50.2914L14.7883 54.0391C13.9383 54.8891 12.4602 54.8886 11.6115 54.0385L5.95987 48.3845C5.53488 47.9602 5.30048 47.3964 5.30116 46.7963C5.30116 46.1969 5.53557 45.6332 5.96056 45.2093L9.77548 41.3928C8.87991 39.7658 8.18865 38.0403 7.7118 36.2439H2.24054C1.00498 36.244 0 35.2377 0 33.9995V26.0023C0 24.7641 1.00498 23.7566 2.24054 23.7566H7.89101C8.40159 22.0428 9.11285 20.394 10.0128 18.8395L5.96046 14.7868C5.53792 14.3687 5.30293 13.8068 5.30175 13.208C5.30048 12.6067 5.53429 12.0417 5.96115 11.6155L11.6122 5.95716C12.4678 5.11153 13.9372 5.11281 14.7853 5.95344L18.9608 10.1292C20.482 9.30292 22.0882 8.65289 23.7531 8.18983V2.24149C23.7523 1.00495 24.7592 0 25.9973 0H33.9952C35.2333 0 36.2407 1.00495 36.2407 2.24129V8.23277C37.8869 8.70407 39.4756 9.3591 40.9793 10.1866L45.2098 5.95638C46.054 5.11193 47.5371 5.11134 48.3809 5.95579L54.0389 11.6154C54.912 12.4942 54.9114 13.9161 54.0383 14.7867L49.8816 18.9444C50.7516 20.4663 51.4416 22.0795 51.9416 23.7558H57.75C58.99 23.7558 60 24.7627 60 26.0015V33.9994C60 35.237 58.9906 36.2439 57.75 36.2439H52.1208C51.654 38.0014 50.9817 39.6921 50.1147 41.2834L54.0389 45.2097C54.9108 46.0849 54.9108 47.5079 54.0408 48.3822L48.3816 54.0387C47.5416 54.8857 46.0511 54.8882 45.2067 54.0357L41.3993 50.2267C39.7706 51.1699 38.0407 51.9049 36.2407 52.4186V57.7538C36.2401 58.9929 35.2333 60 33.9952 60ZM18.2481 47.9289L18.8787 48.3157C20.7475 49.4639 22.7768 50.3083 24.911 50.8271L25.6273 51.0007V57.7556C25.6273 57.9593 25.7936 58.1254 25.9973 58.1254H33.9952C34.2027 58.1254 34.3657 57.9629 34.3657 57.7556V50.9696L35.0751 50.7916C37.1812 50.2626 39.1911 49.4083 41.0493 48.252L41.6818 47.8583L46.5361 52.7147C46.6305 52.8103 46.7398 52.824 46.7967 52.824C46.8528 52.824 46.9622 52.8107 47.0535 52.7178L52.7139 47.0601C52.8563 46.9169 52.857 46.6806 52.7119 46.5355L47.774 41.5947L48.1402 40.9697C49.2107 39.144 49.9964 37.1677 50.4745 35.0963L50.6433 34.37H57.7506C57.9574 34.37 58.1255 34.2045 58.1255 34.0005V26.0023C58.1255 25.7979 57.9574 25.6317 57.7506 25.6317H50.5078L50.3232 24.9335C49.7984 22.9434 48.9846 21.0446 47.9046 19.2883L47.5164 18.6576L52.7119 13.4612C52.855 13.318 52.8544 13.0843 52.71 12.9399L47.0544 7.28282C46.9631 7.19154 46.852 7.17713 46.7945 7.17713C46.7363 7.17713 46.625 7.19085 46.5333 7.28341L41.2833 12.5336L40.6571 12.1623C38.9115 11.1285 37.0328 10.3535 35.0729 9.86089L34.3642 9.68274V2.24119C34.3649 2.03618 34.2024 1.8749 33.9947 1.8749H25.9968C25.7931 1.8749 25.6268 2.03932 25.6268 2.24119V9.65019L24.9105 9.82461C22.9313 10.3059 21.035 11.0721 19.2732 12.1035L18.6488 12.4691L13.4615 7.28135C13.3696 7.19007 13.2572 7.17575 13.199 7.17575C13.1403 7.17575 13.029 7.19007 12.9334 7.28449L7.28514 12.9404C7.18955 13.0361 7.17514 13.1454 7.17514 13.2022C7.17514 13.2585 7.18897 13.3654 7.28141 13.4566L12.3813 18.5561L11.9876 19.1887C10.8751 20.9757 10.0408 22.9082 9.50637 24.932L9.32255 25.6302H2.24054C2.03927 25.6315 1.87496 25.7971 1.87496 26.0021V33.9999C1.87496 34.2036 2.03927 34.3693 2.24054 34.3693H9.19157L9.3597 35.0962C9.84469 37.2032 10.6497 39.2138 11.7508 41.0727L12.1221 41.6991L7.28592 46.5369C7.19093 46.6319 7.17651 46.7412 7.17651 46.798C7.17651 46.8548 7.19034 46.9649 7.28524 47.0591L12.9382 52.7146C13.0332 52.8096 13.1432 52.8239 13.2007 52.8239C13.2576 52.8239 13.3681 52.81 13.4631 52.7146L18.2481 47.9289ZM29.9991 43.75C22.4181 43.75 16.2501 37.5823 16.2501 30.0013C16.2501 22.4198 22.4181 16.2514 29.9991 16.2514C37.5801 16.2514 43.7473 22.4198 43.7473 30.0013C43.7473 37.5821 37.5801 43.75 29.9991 43.75ZM29.9991 18.1263C23.4511 18.1263 18.125 23.4528 18.125 30.0011C18.125 36.5482 23.4511 41.8747 29.9991 41.8747C36.5463 41.8747 41.8723 36.5482 41.8723 30.0011C41.8723 23.4529 36.5463 18.1263 29.9991 18.1263Z" fill="#3B507D"/>
</svg>
